<svg xmlns="http://www.w3.org/2000/svg" width="14.433" height="14.433" viewBox="0 0 14.433 14.433">
  <g id="Group_5995" data-name="Group 5995" transform="translate(0 0)">
    <path id="Path_12751" data-name="Path 12751" d="M-1083.126.5a7.226,7.226,0,0,1,7.226-7.214A7.226,7.226,0,0,1-1068.693.5a7.226,7.226,0,0,1-7.226,7.215A7.227,7.227,0,0,1-1083.126.5Zm9.616-2.758a37.693,37.693,0,0,1-4.8,0,12.376,12.376,0,0,0-.26,2.34h5.327A12.813,12.813,0,0,0-1073.51-2.261Zm-5.064,3.173a12.542,12.542,0,0,0,.267,2.347,37.469,37.469,0,0,1,4.8,0,12.551,12.551,0,0,0,.262-2.346Zm4.869,3.149a33.886,33.886,0,0,0-4.378,0c-.007.025-.013.036-.011.045.006.031.014.062.022.092a5.817,5.817,0,0,0,.839,1.8,2.963,2.963,0,0,0,.565.61,1.134,1.134,0,0,0,1.614-.067A5.249,5.249,0,0,0-1073.706,4.06Zm-.01-7.123a.893.893,0,0,0-.028-.126c-.166-.415-.311-.839-.505-1.241a3.078,3.078,0,0,0-.827-1.125,1.345,1.345,0,0,0-.764-.346,1.311,1.311,0,0,0-1.021.455,5.3,5.3,0,0,0-1.233,2.336c0,.012.007.029.012.049A34.2,34.2,0,0,0-1073.716-3.063Zm-5.445.741c-.018,0-.044-.01-.069-.013-.727-.089-1.453-.176-2.179-.269-.1-.013-.128.043-.163.11a6.143,6.143,0,0,0-.6,1.688c-.057.291-.09.586-.135.888h2.889ZM-1072.4.914l-.263,2.4c.025,0,.06.012.1.017.716.088,1.432.173,2.148.265a.137.137,0,0,0,.165-.1c.175-.445.377-.881.515-1.337a12.488,12.488,0,0,0,.247-1.244Zm-.262-3.237c.089.814.175,1.608.262,2.4h2.875a6.432,6.432,0,0,0-.734-2.591c-.048-.091-.105-.1-.191-.084-.381.054-.761.108-1.143.155C-1071.948-2.4-1072.309-2.362-1072.658-2.323Zm-6.5,5.642-.261-2.4h-2.874a6.224,6.224,0,0,0,.753,2.611.2.2,0,0,0,.164.063c.288-.032.573-.081.861-.116C-1080.066,3.419-1079.61,3.369-1079.162,3.318Zm8.351,1.054a.385.385,0,0,0-.072-.027c-.638-.073-1.277-.146-1.916-.212-.033,0-.092.052-.106.092-.114.317-.194.648-.333.952-.223.486-.484.955-.725,1.423A6.388,6.388,0,0,0-1070.811,4.372Zm-6.981-10a6.479,6.479,0,0,0-3.239,2.28c.7.075,1.36.147,2.02.211.029,0,.082-.051.095-.089.072-.209.128-.423.2-.631A7.435,7.435,0,0,1-1077.791-5.626Zm3.793.011c0,.024,0,.035.007.042a7.284,7.284,0,0,1,1.078,2.341c.028.1.072.107.157.1.367-.04.735-.071,1.1-.112.276-.031.552-.073.856-.113A6.435,6.435,0,0,0-1074-5.615ZM-1077.824,6.6a7.544,7.544,0,0,1-1.085-2.375c-.026-.09-.068-.1-.147-.09-.372.04-.745.072-1.116.113-.275.031-.548.073-.848.113A6.327,6.327,0,0,0-1077.824,6.6Z" transform="translate(1083.126 6.718)" fill="#3c4155"/>
  </g>
</svg>
