<svg xmlns="http://www.w3.org/2000/svg" viewBox="0 0 24 24"><path d="M12,16a4,4,0,1,1,4-4A4,4,0,0,1,12,16Zm0-5.84A1.89,1.89,0,1,0,13.89,12,1.88,1.88,0,0,0,12,10.12Z" fill="#3c4155"/><path d="M12.08,24a3,3,0,0,1-3-3,.74.74,0,0,0-.72-.69.7.7,0,0,0-.43.19,3,3,0,1,1-4.32-4.26.64.64,0,0,0,0-.93.59.59,0,0,0-.42-.17H3A3,3,0,0,1,3,9.05a.68.68,0,0,0,.51-.23.7.7,0,0,0,.18-.5.75.75,0,0,0-.18-.43,3,3,0,0,1-1-2.1A3,3,0,0,1,7.64,3.44l.18.17a.61.61,0,0,0,.69.15l.2-.07A.59.59,0,0,0,9,3.2V3A3,3,0,0,1,15,3a.67.67,0,0,0,.19.52.65.65,0,0,0,.44.18.62.62,0,0,0,.43-.18,3,3,0,0,1,5.22,2.1,3,3,0,0,1-.89,2.14.64.64,0,0,0-.17.72.76.76,0,0,1,.06.2.61.61,0,0,0,.5.26H21A3,3,0,1,1,21,15a.68.68,0,0,0-.61.3l0,.08a.59.59,0,0,0,.12.67,3.1,3.1,0,0,1,.94,2.2,3,3,0,0,1-.89,2.14,3.1,3.1,0,0,1-4.29,0,.65.65,0,0,0-.48-.22h0a.59.59,0,0,0-.43.19.64.64,0,0,0-.18.43V21A3,3,0,0,1,12.08,24ZM8.37,18.21a2.76,2.76,0,0,1,2.75,2.61,1,1,0,0,0,1,1.11,1,1,0,0,0,1-1v-.16A2.73,2.73,0,0,1,13.8,19a2.65,2.65,0,0,1,1.89-.82,2.45,2.45,0,0,1,1.92.76A1,1,0,0,0,19,19a1,1,0,0,0,0-1.36,2.7,2.7,0,0,1-.67-2.87c0-.05,0-.1.05-.15A2.68,2.68,0,0,1,20.88,13a1,1,0,0,0,1.05-1,1,1,0,0,0-1-1h-.16a2.67,2.67,0,0,1-2.46-1.62,1.38,1.38,0,0,1-.08-.27,2.69,2.69,0,0,1,.62-2.76,1,1,0,0,0,.35-.74A1,1,0,0,0,19,5,1,1,0,0,0,17.6,5a2.78,2.78,0,0,1-1.92.83A2.68,2.68,0,0,1,13.77,5,2.72,2.72,0,0,1,13,3.13a1,1,0,0,0-1-1.06,1,1,0,0,0-1,1V3.2A2.69,2.69,0,0,1,9.42,5.66a1.34,1.34,0,0,1-.27.07,2.68,2.68,0,0,1-2.76-.61L6.24,5A1,1,0,0,0,4.88,5a1,1,0,0,0,.06,1.35l.12.12a2.75,2.75,0,0,1,.72,1.72,2.7,2.7,0,0,1-.7,2,2.74,2.74,0,0,1-1.9.92,1,1,0,0,0-1.11,1,1,1,0,0,0,1,1H3.2a2.63,2.63,0,0,1,1.85.75,2.7,2.7,0,0,1,.07,3.81A1,1,0,0,0,5.05,19a1,1,0,0,0,1.36,0,2.77,2.77,0,0,1,1.8-.81Z" fill="#3c4155"/></svg>