<svg xmlns="http://www.w3.org/2000/svg" viewBox="0 0 100 100"><path d="M50.12.21C76.93-1.06,100.6,23.14,100,50.3,99.36,78,77.7,99.89,49.85,99.86S.48,77.87,0,50,24-1.32,50.12.21Zm.21,89.41c10.29-.07,19.34-3.93,27.18-11,2.65-2.4,3.11-4.49.65-7.22-5.91-6.52-12.69-10.14-21.93-8.33a31.83,31.83,0,0,1-12.49,0c-8.87-1.9-15.41,1.59-21.28,7.53-2.91,2.94-3,5.46.4,8.39C30.69,85.81,39.57,89.58,50.33,89.62ZM68.24,36.76A18.38,18.38,0,0,0,50.18,18.13c-9.84-.22-18.81,8.66-18.87,18.68s8.43,18.37,18.93,18.32C60.57,55.08,68.24,47.25,68.24,36.76Z" fill="#6e7387"/></svg>