<svg xmlns="http://www.w3.org/2000/svg" viewBox="0 0 512 512">
  <defs>
    <linearGradient id="dome" x1="80" y1="100" x2="350" y2="310" gradientUnits="userSpaceOnUse">
      <stop offset="0%" stop-color="#1B4F72"/>
      <stop offset="100%" stop-color="#0A2540"/>
    </linearGradient>
    <linearGradient id="plate" x1="50" y1="325" x2="462" y2="325" gradientUnits="userSpaceOnUse">
      <stop offset="0%" stop-color="#0A2540"/>
      <stop offset="50%" stop-color="#1B4F72"/>
      <stop offset="100%" stop-color="#10B981"/>
    </linearGradient>
    <linearGradient id="check" x1="168" y1="335" x2="368" y2="185" gradientUnits="userSpaceOnUse">
      <stop offset="0%" stop-color="#34D399"/>
      <stop offset="50%" stop-color="#10B981"/>
      <stop offset="100%" stop-color="#059669"/>
    </linearGradient>
  </defs>

  <!-- Dome -->
  <path d="M80,310 C80,175 165,100 256,100 C347,100 432,175 432,310 Z" fill="url(#dome)"/>

  <!-- Dome highlight -->
  <path d="M130,280 C130,195 185,135 256,135 C300,135 340,160 365,200 C340,155 300,125 256,125 C190,125 115,190 110,290 Z" fill="#FFFFFF" fill-opacity="0.08"/>

  <!-- Knob -->
  <ellipse cx="256" cy="96" rx="22" ry="18" fill="#0E3854"/>
  <ellipse cx="253" cy="92" rx="10" ry="8" fill="#FFFFFF" fill-opacity="0.15"/>

  <!-- Plate -->
  <rect x="50" y="308" width="412" height="32" rx="16" fill="url(#plate)"/>

  <!-- Plate highlight -->
  <rect x="50" y="308" width="412" height="16" rx="8" fill="#FFFFFF" fill-opacity="0.1"/>

  <!-- Checkmark -->
  <path d="M168,265 L232,335 L368,185" fill="none" stroke="url(#check)" stroke-width="44" stroke-linecap="round" stroke-linejoin="round"/>

  <!-- Checkmark highlight -->
  <path d="M172,260 L234,328 L364,182" fill="none" stroke="#FFFFFF" stroke-width="5" stroke-opacity="0.1" stroke-linecap="round" stroke-linejoin="round"/>
</svg>
